<?xml version="1.0" standalone="no"?>
<!DOCTYPE svg PUBLIC "-//W3C//DTD SVG 20010904//EN"
 "http://www.w3.org/TR/2001/REC-SVG-20010904/DTD/svg10.dtd">
<svg version="1.0" xmlns="http://www.w3.org/2000/svg"
 width="1024.000000pt" height="1024.000000pt" viewBox="0 0 1024.000000 1024.000000"
 preserveAspectRatio="xMidYMid meet">
<metadata>
Created by potrace 1.16, written by Peter Selinger 2001-2019
</metadata>
<g transform="translate(0.000000,1024.000000) scale(0.100000,-0.100000)"
fill="#000000" stroke="none">
<path d="M0 5120 l0 -5120 5120 0 5120 0 0 5120 0 5120 -5120 0 -5120 0 0
-5120z m6540 5057 c29 -15 50 -51 43 -76 -2 -10 -26 -35 -51 -56 l-47 -38 38
39 c41 44 48 81 18 108 -17 15 -127 16 -1572 13 -1653 -4 -1589 -2 -1734 -53
-176 -62 -136 -25 -1300 -1184 -588 -585 -1179 -1173 -1312 -1305 -133 -132
-249 -253 -258 -268 -15 -25 -15 -30 -1 -50 9 -12 388 -397 844 -856 945 -952
856 -878 945 -780 l49 54 -34 -50 c-42 -61 -86 -89 -119 -76 -13 5 -195 181
-404 391 -209 210 -583 585 -831 833 -248 249 -459 464 -468 478 -12 20 -14
32 -7 50 5 13 70 84 145 158 74 74 132 139 129 145 -3 6 -2 8 2 3 12 -10 106
83 98 97 -3 6 -3 8 2 4 11 -11 36 12 28 25 -3 5 -1 7 5 3 10 -6 27 10 27 27 0
4 5 7 10 8 15 1 55 41 50 49 -3 4 2 13 10 20 8 7 15 9 15 4 0 -4 16 7 35 26
18 18 33 36 32 39 -1 3 1 6 5 6 15 0 57 49 51 59 -3 6 -2 7 2 3 12 -10 166
143 158 157 -3 6 -2 7 2 3 11 -10 446 423 438 436 -3 6 -2 7 4 4 13 -8 76 57
66 68 -5 4 -3 5 3 2 14 -8 97 76 87 88 -5 4 -3 5 3 2 10 -6 73 50 74 66 0 4 3
7 8 7 15 0 731 724 725 734 -3 6 -3 8 2 4 11 -11 36 12 28 25 -3 5 -2 7 4 4
11 -7 146 126 138 136 -3 4 -2 5 2 2 10 -8 233 217 226 228 -3 6 -1 7 4 4 13
-8 89 51 85 65 -1 5 2 7 8 3 13 -8 52 14 45 25 -4 6 1 7 11 3 12 -4 15 -3 10
5 -5 8 -1 10 10 5 12 -4 15 -3 10 5 -5 8 -1 10 10 5 12 -4 15 -3 10 5 -4 7 -2
10 7 7 7 -3 31 2 53 11 21 9 55 22 74 28 24 7 465 12 1370 16 734 3 1452 6
1595 7 193 2 266 -1 285 -10z m927 -133 c-3 -3 -12 -4 -19 -1 -8 3 -5 6 6 6
11 1 17 -2 13 -5z m44 -41 c17 -15 54 -51 82 -80 27 -29 54 -50 59 -47 4 3 7
0 6 -7 -2 -7 4 -13 12 -14 8 0 15 -7 15 -15 1 -8 7 -14 15 -12 8 2 12 0 7 -4
-10 -10 94 -115 106 -107 6 3 7 1 4 -4 -4 -6 499 -515 1118 -1131 1316 -1310
1183 -1146 1033 -1287 -85 -79 -294 -233 -303 -223 -3 2 28 27 68 55 93 65
293 236 307 264 7 11 9 31 6 43 -3 13 -190 205 -414 427 -225 222 -801 793
-1281 1269 -598 593 -879 866 -896 868 -20 3 -161 -134 -866 -836 -712 -709
-841 -842 -837 -860 4 -12 2 -22 -3 -22 -5 0 -9 4 -9 9 0 5 -3 17 -6 26 -5 12
64 87 265 289 149 150 268 276 264 281 -4 4 -3 5 3 2 10 -6 62 40 63 56 1 4 4
7 9 7 15 1 71 64 65 73 -3 6 -2 7 4 4 12 -8 76 50 69 62 -3 5 2 15 11 22 12
10 14 10 9 2 -12 -21 1 -15 29 12 26 27 33 41 13 29 -7 -4 -8 -3 -4 5 4 6 11
9 15 7 11 -7 163 143 156 154 -3 5 0 8 7 5 16 -6 432 410 424 424 -4 5 -1 13
5 17 8 4 9 3 5 -4 -15 -25 11 -11 42 22 32 34 42 53 20 40 -7 -4 -8 -3 -4 5 4
6 11 9 15 7 10 -6 83 59 79 71 -2 4 2 10 7 11 6 2 36 28 67 58 65 62 91 67
139 27z m-4432 -2212 c-115 -7 -133 -18 -126 -73 3 -21 1 -36 -3 -33 -5 3 -11
-1 -13 -7 -3 -7 -6 11 -6 41 -1 75 9 81 139 79 l105 -2 -96 -5z m399 -3 c9 -9
12 -97 12 -337 0 -288 2 -326 17 -343 26 -29 54 -21 113 35 l55 52 -55 -57
c-30 -32 -63 -58 -73 -58 -10 0 -32 9 -48 21 l-29 21 0 320 c1 210 -3 325 -10
332 -5 5 -58 13 -118 16 l-107 7 115 1 c79 1 120 -2 128 -10z m-196 -25 c-51
-2 -132 -2 -180 0 -48 1 -6 3 93 3 99 0 138 -2 87 -3z m1926 -17 c15 -8 99
-87 186 -175 88 -88 163 -158 168 -155 5 3 7 1 6 -4 -2 -8 1191 -1226 1270
-1296 13 -12 233 -227 488 -480 417 -412 464 -461 464 -490 0 -28 -122 -153
-1294 -1325 -711 -711 -1299 -1297 -1307 -1302 -44 -28 -50 -23 -609 539 -300
301 -570 575 -600 607 -30 33 215 -209 545 -537 526 -524 604 -598 630 -598
26 0 182 152 1322 1293 1039 1038 1293 1297 1293 1318 0 20 -165 189 -832 855
-1359 1353 -1743 1734 -1751 1734 -5 0 -20 -6 -35 -14 -15 -8 -602 -590 -1304
-1293 -988 -988 -1278 -1284 -1278 -1303 0 -25 34 -61 605 -638 165 -167 302
-306 305 -310 2 -4 -140 135 -315 309 -176 174 -389 383 -472 464 -109 106
-153 155 -153 171 0 28 21 53 188 218 72 71 130 134 129 140 -1 5 3 10 8 11
19 1 56 33 53 46 -2 8 4 13 12 12 19 -3 1915 1891 1906 1905 -3 5 4 18 17 28
l22 19 -19 -22 c-11 -13 -15 -23 -10 -23 13 0 155 147 152 157 -2 4 0 8 4 8 4
0 38 30 75 66 57 56 78 72 101 78 2 1 15 -5 30 -13z m-1751 -303 c-1 -54 -3
-10 -3 97 0 107 2 151 3 98 2 -54 2 -142 0 -195z m-500 -50 c-2 -16 -4 -5 -4
22 0 28 2 40 4 28 2 -13 2 -35 0 -50z m-4 -535 c3 -281 1 -390 -7 -397 -8 -7
-10 95 -8 391 1 221 4 399 6 397 2 -2 6 -178 9 -391z m6697 202 c0 -5 -5 -10
-11 -10 -5 0 -7 5 -4 10 3 6 8 10 11 10 2 0 4 -4 4 -10z m-60 -35 c0 -2 -10
-9 -22 -15 -22 -11 -22 -10 -4 4 21 17 26 19 26 11z m-55 -35 c-3 -5 -12 -10
-18 -10 -7 0 -6 4 3 10 19 12 23 12 15 0z m-130 -70 c-3 -5 -12 -10 -18 -10
-7 0 -6 4 3 10 19 12 23 12 15 0z m-100 -50 c-3 -5 -11 -10 -16 -10 -6 0 -7 5
-4 10 3 6 11 10 16 10 6 0 7 -4 4 -10z m-50 -20 c-3 -5 -14 -10 -23 -10 -15 0
-15 2 -2 10 20 13 33 13 25 0z m-70 -30 c-3 -5 -14 -10 -23 -10 -15 0 -15 2
-2 10 20 13 33 13 25 0z m-55 -20 c-20 -13 -33 -13 -25 0 3 6 14 10 23 10 15
0 15 -2 2 -10z m-60 -20 c-8 -5 -22 -10 -30 -10 -13 0 -13 1 0 10 8 5 22 10
30 10 13 0 13 -1 0 -10z m-93 -26 c-3 -3 -12 -4 -19 -1 -8 3 -5 6 6 6 11 1 17
-2 13 -5z m-80 -20 c-3 -3 -12 -4 -19 -1 -8 3 -5 6 6 6 11 1 17 -2 13 -5z
m-5920 -166 c-3 -8 -6 -5 -6 6 -1 11 2 17 5 13 3 -3 4 -12 1 -19z m-47 -131
c0 -2 -13 -16 -30 -32 -16 -16 -30 -25 -30 -21 0 4 12 18 26 31 25 24 34 29
34 22z m-2594 -107 c53 -55 101 -97 107 -93 5 3 7 1 4 -4 -6 -10 30 -51 39
-45 2 1 4 -1 4 -5 1 -16 124 -132 133 -126 6 3 7 2 4 -4 -3 -5 17 -32 45 -59
31 -30 48 -41 44 -29 -5 15 -4 17 4 9 6 -6 13 -20 15 -30 1 -11 8 -18 14 -16
6 1 10 -1 9 -5 -2 -5 0 -8 4 -8 10 0 97 -87 95 -94 -1 -3 1 -6 5 -6 13 0 117
-108 115 -119 -1 -6 5 -10 13 -8 8 2 12 0 7 -4 -10 -11 23 -45 37 -37 6 3 7 2
3 -2 -9 -11 111 -134 127 -131 6 2 7 1 3 -2 -5 -2 -1 -13 9 -23 9 -10 21 -16
27 -12 5 3 7 1 4 -4 -4 -6 2 -18 13 -28 11 -10 20 -15 20 -10 0 4 7 2 15 -5 8
-7 13 -16 10 -20 -6 -9 13 -25 30 -25 6 0 10 -7 10 -15 1 -8 6 -14 13 -13 7 2
11 -3 9 -10 -1 -6 4 -11 10 -10 7 2 12 -3 10 -10 -1 -6 3 -11 10 -10 6 1 17
-4 23 -12 7 -8 9 -15 5 -15 -5 0 0 -9 10 -20 10 -11 22 -17 28 -13 5 3 7 1 4
-4 -4 -6 0 -16 8 -23 8 -7 15 -9 15 -5 0 5 9 0 20 -10 10 -9 18 -22 17 -29 -1
-6 3 -10 9 -9 6 1 22 -9 34 -22 13 -14 20 -25 16 -25 -5 0 -3 -7 4 -15 7 -8
16 -12 21 -9 5 3 8 2 7 -3 -2 -4 2 -9 7 -11 18 -6 44 -34 42 -46 -1 -6 4 -10
11 -8 6 1 11 -4 10 -10 -2 -7 4 -12 12 -10 8 2 12 0 8 -4 -11 -10 12 -35 26
-27 6 3 8 3 4 -2 -10 -10 11 -37 22 -30 5 3 11 1 14 -4 4 -5 2 -12 -4 -16 -5
-3 -343 326 -751 732 -407 406 -747 739 -755 741 -45 11 -44 46 -44 -1095 0
-1128 1 -1149 46 -1418 20 -121 84 -365 133 -505 139 -402 386 -821 668 -1134
88 -97 1269 -1280 1363 -1365 397 -357 904 -621 1440 -749 69 -17 159 -35 200
-42 41 -6 95 -16 120 -20 25 -5 110 -14 190 -21 80 -6 147 -14 150 -16 9 -10
-254 6 -360 22 -364 54 -668 149 -1011 314 -261 126 -555 325 -744 503 -154
145 -1371 1364 -1422 1424 -69 82 -213 269 -229 299 -6 11 -16 19 -23 17 -7
-1 -9 2 -6 9 4 6 -2 24 -14 39 -11 16 -43 67 -71 114 -28 47 -55 86 -61 86 -6
0 -7 4 -4 10 3 5 -7 33 -23 62 -16 29 -50 101 -77 160 -27 59 -53 104 -58 101
-6 -3 -7 -1 -3 6 10 16 -3 53 -16 45 -7 -4 -8 -2 -4 4 3 6 -5 44 -20 84 -14
40 -30 88 -35 106 -6 20 -14 30 -21 26 -7 -5 -8 -2 -4 5 11 18 -25 145 -36
129 -6 -9 -7 -5 -3 10 8 27 -3 84 -15 77 -4 -3 -6 3 -3 13 2 10 -2 48 -11 84
-8 36 -24 129 -36 207 -19 136 -20 186 -20 1246 0 755 -3 1113 -11 1132 -5 15
-7 24 -3 20 4 -4 13 2 21 13 9 12 26 20 44 20 24 0 46 -17 125 -100z m2074
-413 c0 -2 -17 -19 -37 -38 l-38 -34 34 38 c33 34 41 42 41 34z m2424 -23 c14
-5 16 -36 16 -239 0 -203 -2 -234 -16 -239 -20 -8 -432 -8 -461 0 l-23 6 0
233 c0 177 3 235 13 238 18 8 452 8 471 1z m669 -4 c-23 -9 -23 -10 -20 -232
l2 -223 224 -3 c173 -2 226 1 233 10 6 10 8 9 8 -3 0 -9 -8 -19 -17 -21 -30
-8 -437 -10 -455 -3 -16 7 -18 27 -18 240 0 245 0 243 45 244 18 0 18 -1 -2
-9z m235 -447 c-27 -2 -69 -2 -95 0 -27 2 -5 3 47 3 52 0 74 -1 48 -3z m-3960
-545 c-2 -7 2 -12 8 -11 6 1 11 -5 11 -13 0 -12 -4 -11 -18 2 -10 9 -16 21
-13 25 8 13 14 11 12 -3z m2613 -22 c-7 -8 -16 -27 -21 -43 l-8 -28 -1 31 c-1
29 14 54 32 54 5 0 4 -6 -2 -14z m447 2 c7 -7 11 -37 11 -72 l-2 -61 -7 59
c-5 39 -14 64 -26 73 -14 10 -15 13 -3 13 8 0 20 -5 27 -12z m672 3 l-25 -7 0
-224 0 -225 222 -3 223 -2 6 23 c3 14 3 69 0 123 -3 55 -5 144 -5 200 l-1 100
-37 11 -38 10 32 2 c66 2 63 12 63 -239 0 -126 -4 -231 -8 -234 -5 -3 -111 -6
-237 -7 -167 -1 -229 2 -235 11 -12 20 -12 427 0 450 7 13 20 20 38 19 l27 -1
-25 -7z m-3675 -44 c1 -7 6 -11 13 -9 7 1 11 -4 10 -10 -2 -7 3 -12 10 -10 6
1 11 -3 10 -10 -2 -7 3 -12 10 -13 6 0 11 -3 10 -6 -5 -12 34 -49 45 -42 5 3
7 1 3 -5 -6 -10 10 -27 27 -27 4 0 7 -4 8 -10 0 -5 6 -17 12 -25 6 -8 -33 27
-86 79 -53 52 -94 99 -90 103 6 11 18 1 18 -15z m4082 -149 c-3 -8 -6 -5 -6 6
-1 11 2 17 5 13 3 -3 4 -12 1 -19z m-1540 -10 c0 -13 1 -76 2 -140 l1 -118 41
0 c24 0 38 -4 34 -10 -9 -14 -68 -13 -83 2 -19 19 -16 288 3 288 0 0 1 -10 2
-22z m-2342 -36 c-9 -9 57 -72 69 -65 6 3 8 2 3 -2 -4 -5 3 -20 15 -34 12 -14
-7 2 -43 37 -36 35 -66 70 -66 77 0 11 4 12 14 3 7 -6 11 -13 8 -16z m2362
-124 c-2 -24 -4 -5 -4 42 0 47 2 66 4 43 2 -24 2 -62 0 -85z m-2217 -14 c0 -8
-19 -13 -24 -6 -3 5 1 9 9 9 8 0 15 -2 15 -3z m21 -41 c13 -16 12 -17 -3 -4
-17 13 -22 21 -14 21 2 0 10 -8 17 -17z m2322 -30 c-13 -2 -35 -2 -50 0 -16 2
-5 4 22 4 28 0 40 -2 28 -4z m100 0 c-13 -2 -33 -2 -45 0 -13 2 -3 4 22 4 25
0 35 -2 23 -4z m227 4 c0 -2 -10 -12 -22 -23 l-23 -19 19 23 c18 21 26 27 26
19z m918 -4 c-21 -2 -55 -2 -75 0 -21 2 -4 4 37 4 41 0 58 -2 38 -4z m-3497
-40 c13 -16 12 -17 -3 -4 -17 13 -22 21 -14 21 2 0 10 -8 17 -17z m-2124 -260
c-3 -10 -5 -2 -5 17 0 19 2 27 5 18 2 -10 2 -26 0 -35z m3429 -55 l29 -33 -32
29 c-31 28 -38 36 -30 36 2 0 16 -15 33 -32z m-3409 -90 c-3 -7 -5 -2 -5 12 0
14 2 19 5 13 2 -7 2 -19 0 -25z m20 -120 c-3 -7 -5 -2 -5 12 0 14 2 19 5 13 2
-7 2 -19 0 -25z m8236 -245 c-23 -2 -64 -2 -90 0 -26 2 -7 3 42 3 50 0 71 -1
48 -3z m-210 -10 c-13 -2 -33 -2 -45 0 -13 2 -3 4 22 4 25 0 35 -2 23 -4z
m375 0 c-10 -2 -28 -2 -40 0 -13 2 -5 4 17 4 22 1 32 -1 23 -4z m-495 -10 c-7
-2 -19 -2 -25 0 -7 3 -2 5 12 5 14 0 19 -2 13 -5z m552 -13 c39 -6 90 -13 115
-16 25 -3 59 -10 75 -15 17 -5 44 -11 60 -13 61 -8 291 -80 305 -95 3 -3 13
-7 23 -9 25 -4 230 -102 225 -108 -3 -2 -24 6 -49 17 -198 96 -486 182 -719
213 -169 24 -472 21 -638 -4 -198 -30 -452 -101 -602 -168 -64 -28 -162 -73
-185 -84 -14 -7 -17 -7 -10 0 14 14 210 112 225 112 7 0 10 7 5 18 -5 13 -3
14 6 5 8 -8 27 -5 78 14 36 14 104 36 151 50 125 36 117 32 100 44 -11 8 -9 9
8 4 13 -4 78 3 145 14 67 12 167 26 222 31 111 10 352 4 460 -10z m-622 3 c-7
-2 -19 -2 -25 0 -7 3 -2 5 12 5 14 0 19 -2 13 -5z m734 1 c-3 -3 -12 -4 -19
-1 -8 3 -5 6 6 6 11 1 17 -2 13 -5z m-8500 -26 c-3 -8 -6 -5 -6 6 -1 11 2 17
5 13 3 -3 4 -12 1 -19z m7706 15 c-7 -2 -19 -2 -25 0 -7 3 -2 5 12 5 14 0 19
-2 13 -5z m-46 -9 c-3 -3 -12 -4 -19 -1 -8 3 -5 6 6 6 11 1 17 -2 13 -5z m-50
-10 c-3 -3 -12 -4 -19 -1 -8 3 -5 6 6 6 11 1 17 -2 13 -5z m1046 -1 c-7 -2
-19 -2 -25 0 -7 3 -2 5 12 5 14 0 19 -2 13 -5z m-1166 -29 c-3 -3 -12 -4 -19
-1 -8 3 -5 6 6 6 11 1 17 -2 13 -5z m-387 -144 c-8 -5 -19 -10 -25 -10 -5 0
-3 5 5 10 8 5 20 10 25 10 6 0 3 -5 -5 -10z m-40 -15 c0 -2 -13 -11 -30 -20
-38 -19 -40 -11 -2 9 31 17 32 18 32 11z m-95 -85 c-3 -5 -11 -10 -16 -10 -6
0 -7 5 -4 10 3 6 11 10 16 10 6 0 7 -4 4 -10z m2506 -118 c114 -78 170 -121
256 -199 74 -66 74 -66 71 -113 l-3 -47 -1280 -1285 c-704 -707 -1291 -1291
-1303 -1298 -13 -6 -34 -9 -46 -6 -18 4 -703 686 -921 916 -133 141 -48 58
430 -420 377 -377 485 -480 505 -480 20 0 289 264 1312 1287 1282 1282 1288
1288 1288 1328 0 36 -6 46 -57 96 -76 73 -148 132 -262 212 -114 82 -107 89
10 9z m-2831 -65 c0 -2 -10 -12 -22 -23 l-23 -19 19 23 c18 21 26 27 26 19z
m-60 -50 c0 -2 -10 -12 -22 -23 l-23 -19 19 23 c18 21 26 27 26 19z m-580
-570 c0 -2 -10 -12 -22 -23 l-23 -19 19 23 c18 21 26 27 26 19z m-50 -50 c0
-2 -15 -16 -32 -33 l-33 -29 29 33 c28 30 36 37 36 29z m-80 -80 c0 -1 -46
-47 -102 -102 l-103 -100 100 103 c93 95 105 107 105 99z m-220 -220 c0 -2
-15 -16 -32 -33 l-33 -29 29 33 c28 30 36 37 36 29z m-99 -131 c-30 -33 -51
-64 -51 -77 0 -16 57 -81 193 -217 204 -207 232 -244 57 -78 -220 210 -270
264 -270 286 0 18 102 140 118 140 3 0 -18 -24 -47 -54z m489 -648 c54 -54 94
-98 91 -98 -3 0 -62 57 -131 127 -69 70 -110 114 -91 98 19 -17 78 -74 131
-127z m250 -1251 c0 -26 -54 -77 -82 -77 -21 1 -20 2 7 14 46 20 58 41 52 84
-6 34 -5 35 8 18 8 -11 15 -28 15 -39z m-2013 -63 c-3 -3 -12 -4 -19 -1 -8 3
-5 6 6 6 11 1 17 -2 13 -5z"/>
<path d="M805 5860 c21 -22 41 -40 44 -40 3 0 -13 18 -34 40 -21 22 -41 40
-44 40 -3 0 13 -18 34 -40z"/>
<path d="M915 5750 c27 -27 51 -50 54 -50 3 0 -17 23 -44 50 -27 28 -51 50
-54 50 -3 0 17 -22 44 -50z"/>
<path d="M1450 5216 c0 -2 8 -10 18 -17 15 -13 16 -12 3 4 -13 16 -21 21 -21
13z"/>
<path d="M1515 5150 c10 -11 20 -20 23 -20 3 0 -3 9 -13 20 -10 11 -20 20 -23
20 -3 0 3 -9 13 -20z"/>
<path d="M1590 5076 c0 -2 8 -10 18 -17 15 -13 16 -12 3 4 -13 16 -21 21 -21
13z"/>
<path d="M4376 5849 c-4 -22 -4 -44 -2 -48 3 -4 1 -24 -5 -45 -5 -20 -7 -41
-3 -47 3 -6 8 -66 9 -132 2 -67 3 -128 4 -134 1 -10 53 -13 225 -13 224 0 224
0 230 23 8 29 8 366 0 406 l-6 31 -223 0 -222 0 -7 -41z m237 14 c-34 -2 -93
-2 -130 0 -37 2 -9 3 62 3 72 0 102 -1 68 -3z m-216 -25 c-3 -8 -6 -5 -6 6 -1
11 2 17 5 13 3 -3 4 -12 1 -19z m420 -190 c-2 -29 -3 -8 -3 47 0 55 1 79 3 53
2 -26 2 -71 0 -100z m-420 -165 c-2 -21 -4 -4 -4 37 0 41 2 58 4 38 2 -21 2
-55 0 -75z m301 -40 c-42 -2 -114 -2 -160 0 -46 1 -11 3 77 3 88 0 125 -2 83
-3z"/>
</g>
</svg>
