<svg width="96" height="96" viewBox="0 0 96 96" fill="none" xmlns="http://www.w3.org/2000/svg">
  <rect width="96" height="96" rx="24" fill="#E6F6ED"/>
  <rect x="14" y="14" width="68" height="68" rx="18" fill="#047857"/>
  <path d="M33.448 56.768C33.448 62.816 37.624 66.576 43.48 66.576C48.792 66.576 52.488 63.776 53.704 59.216H47.592C46.824 60.848 45.16 61.84 43.32 61.84C40.296 61.84 38.104 59.728 38.104 56.768V39.232C38.104 36.272 40.296 34.16 43.32 34.16C45.16 34.16 46.824 35.152 47.592 36.784H53.704C52.488 32.224 48.792 29.424 43.48 29.424C37.624 29.424 33.448 33.184 33.448 39.232V56.768Z" fill="#F6FCF8"/>
  <path d="M55.376 66V29.904H60.992L74.496 52.656V29.904H79.152V66H73.536L60.032 43.248V66H55.376Z" fill="#F6FCF8"/>
</svg>
